<?xml version="1.0" standalone="no"?>
<!DOCTYPE svg PUBLIC "-//W3C//DTD SVG 20010904//EN"
 "http://www.w3.org/TR/2001/REC-SVG-20010904/DTD/svg10.dtd">
<svg version="1.0" xmlns="http://www.w3.org/2000/svg"
 width="914.000000pt" height="912.000000pt" viewBox="0 0 914.000000 912.000000"
 preserveAspectRatio="xMidYMid meet">

<g transform="translate(0.000000,912.000000) scale(0.100000,-0.100000)"
fill="#915eff" stroke="none">
<path d="M4055 9009 c-60 -5 -177 -18 -260 -30 -1501 -205 -2791 -1216 -3357
-2629 -156 -387 -247 -774 -288 -1220 -14 -149 -14 -562 0 -715 88 -957 472
-1818 1127 -2527 59 -65 152 -158 205 -207 54 -49 142 -136 195 -194 325 -350
737 -662 1168 -882 458 -234 938 -378 1475 -442 183 -22 723 -25 905 -5 871
94 1624 410 2289 961 127 104 380 355 492 487 578 678 910 1472 995 2374 16
174 13 608 -5 800 -70 724 -308 1381 -718 1987 -167 245 -402 520 -607 709
-55 50 -145 139 -198 197 -548 591 -1291 1029 -2073 1221 -168 42 -383 81
-560 101 -161 19 -627 28 -785 14z m780 -104 c581 -67 1149 -257 1647 -552
173 -102 474 -310 463 -321 -2 -2 -39 16 -82 41 -421 242 -932 421 -1433 501
-282 45 -739 61 -1015 36 -1046 -96 -1965 -534 -2692 -1284 -1022 -1054 -1422
-2554 -1063 -3986 86 -344 250 -751 420 -1044 28 -48 49 -90 48 -92 -2 -2 -38
43 -80 99 -469 634 -741 1350 -809 2136 -17 200 -6 675 20 871 111 812 434
1539 962 2162 128 151 399 413 559 541 661 530 1440 838 2295 907 156 12 594
4 760 -15z m365 -890 c592 -75 1121 -271 1605 -595 98 -66 172 -138 336 -330
457 -532 754 -1240 830 -1975 16 -153 16 -524 0 -680 -112 -1097 -699 -2069
-1611 -2670 -485 -319 -992 -502 -1600 -577 -164 -20 -643 -17 -810 5 -790
106 -1442 411 -2032 950 -93 86 -131 129 -191 219 -400 603 -608 1286 -608
1998 0 850 295 1663 849 2339 104 127 332 358 457 462 245 204 468 351 745
490 431 215 896 342 1405 383 106 8 506 -4 625 -19z m2426 -1349 c806 -1000
1023 -2351 572 -3566 -60 -163 -201 -454 -295 -607 -530 -873 -1404 -1491
-2391 -1693 -1146 -233 -2313 84 -3185 865 -60 54 -106 99 -104 102 3 2 51
-27 108 -65 984 -660 2220 -804 3339 -391 159 59 470 210 625 304 254 154 500
351 726 581 865 885 1226 2111 979 3326 -93 456 -276 892 -539 1288 -42 63
-77 120 -79 125 -6 20 143 -144 244 -269z"/>
<path d="M3800 6824 c-206 -6 -527 -25 -670 -40 -144 -14 -404 -50 -448 -61
l-22 -5 2 -2136 3 -2137 90 -17 c468 -89 1289 -119 1734 -63 564 71 1015 254
1349 547 281 246 497 623 586 1022 53 236 61 317 61 661 0 343 -9 438 -61 670
-166 742 -673 1247 -1452 1446 -335 86 -744 125 -1172 113z m501 -845 c310
-31 546 -112 727 -249 227 -171 360 -417 429 -790 22 -122 25 -544 5 -660 -32
-178 -74 -313 -135 -435 -188 -377 -506 -585 -992 -650 -112 -15 -601 -21
-664 -9 l-31 7 0 1388 0 1388 33 5 c99 17 486 20 628 5z"/>
</g>
</svg>
